<svg width="128" height="128" viewBox="0 0 128 128" fill="none" xmlns="http://www.w3.org/2000/svg">
  <rect width="128" height="128" rx="20" fill="url(#gradient)"/>
  <defs>
    <linearGradient id="gradient" x1="0%" y1="0%" x2="100%" y2="100%">
      <stop offset="0%" style="stop-color:#3B82F6"/>
      <stop offset="100%" style="stop-color:#8B5CF6"/>
    </linearGradient>
  </defs>
  
  <!-- Background pattern -->
  <rect x="16" y="16" width="96" height="96" rx="16" fill="white" fill-opacity="0.1"/>
  
  <!-- Main chart/dashboard -->
  <rect x="24" y="32" width="80" height="64" rx="8" fill="white" fill-opacity="0.15"/>
  
  <!-- Progress bars -->
  <rect x="32" y="72" width="8" height="16" rx="4" fill="white"/>
  <rect x="44" y="64" width="8" height="24" rx="4" fill="white"/>
  <rect x="56" y="56" width="8" height="32" rx="4" fill="white"/>
  <rect x="68" y="48" width="8" height="40" rx="4" fill="#10B981"/>
  <rect x="80" y="52" width="8" height="36" rx="4" fill="#F59E0B"/>
  <rect x="92" y="60" width="8" height="28" rx="4" fill="#EF4444"/>
  
  <!-- Code symbols -->
  <path d="M28 40L24 44L28 48" stroke="white" stroke-width="3" stroke-linecap="round" stroke-linejoin="round"/>
  <path d="M100 40L104 44L100 48" stroke="white" stroke-width="3" stroke-linecap="round" stroke-linejoin="round"/>
  
  <!-- Progress circle -->
  <circle cx="96" cy="32" r="8" fill="#10B981"/>
  <path d="M92 32L95 35L100 29" stroke="white" stroke-width="2.5" stroke-linecap="round" stroke-linejoin="round"/>
  
  <!-- Stats display -->
  <rect x="32" y="40" width="32" height="4" rx="2" fill="white" fill-opacity="0.7"/>
  <rect x="32" y="46" width="24" height="3" rx="1.5" fill="white" fill-opacity="0.5"/>
  <rect x="32" y="50" width="28" height="3" rx="1.5" fill="white" fill-opacity="0.5"/>
  
  <!-- Notification dot -->
  <circle cx="108" cy="20" r="6" fill="#EF4444"/>
  <text x="108" y="24" text-anchor="middle" fill="white" font-size="8" font-weight="bold">3</text>
</svg>
